<svg width="26" height="25" viewBox="0 0 26 25" fill="none" xmlns="http://www.w3.org/2000/svg">
<g id="carbon:email" filter="url(#filter0_d_4_6)">
<path id="Vector" d="M20.5 3.75H5.5C5.16848 3.75 4.85054 3.8817 4.61612 4.11612C4.3817 4.35054 4.25 4.66848 4.25 5V15C4.25 15.3315 4.3817 15.6495 4.61612 15.8839C4.85054 16.1183 5.16848 16.25 5.5 16.25H20.5C20.8315 16.25 21.1495 16.1183 21.3839 15.8839C21.6183 15.6495 21.75 15.3315 21.75 15V5C21.75 4.66848 21.6183 4.35054 21.3839 4.11612C21.1495 3.8817 20.8315 3.75 20.5 3.75ZM19.125 5L13 9.2375L6.875 5H19.125ZM5.5 15V5.56875L12.6438 10.5125C12.7484 10.5851 12.8727 10.624 13 10.624C13.1273 10.624 13.2516 10.5851 13.3562 10.5125L20.5 5.56875V15H5.5Z" fill="black" fill-opacity="0.64"/>
</g>
<defs>
<filter id="filter0_d_4_6" x="-1" y="0" width="28" height="28" filterUnits="userSpaceOnUse" color-interpolation-filters="sRGB">
<feFlood flood-opacity="0" result="BackgroundImageFix"/>
<feColorMatrix in="SourceAlpha" type="matrix" values="0 0 0 0 0 0 0 0 0 0 0 0 0 0 0 0 0 0 127 0" result="hardAlpha"/>
<feOffset dy="4"/>
<feGaussianBlur stdDeviation="2"/>
<feComposite in2="hardAlpha" operator="out"/>
<feColorMatrix type="matrix" values="0 0 0 0 0 0 0 0 0 0 0 0 0 0 0 0 0 0 0.25 0"/>
<feBlend mode="normal" in2="BackgroundImageFix" result="effect1_dropShadow_4_6"/>
<feBlend mode="normal" in="SourceGraphic" in2="effect1_dropShadow_4_6" result="shape"/>
</filter>
</defs>
</svg>
