<svg width="20" height="20" viewBox="0 0 20 20" fill="none" xmlns="http://www.w3.org/2000/svg">
<g id="ant-design:user-add-outlined">
<path id="Vector" d="M13.248 12.5469C13.7207 12.293 14.2617 12.1484 14.8379 12.1484H14.8398C14.8984 12.1484 14.9258 12.0781 14.8828 12.0391C14.2836 11.5013 13.5991 11.067 12.8574 10.7539C12.8496 10.75 12.8418 10.748 12.834 10.7441C14.0469 9.86328 14.8359 8.43164 14.8359 6.81641C14.8359 4.14062 12.6719 1.97266 10.002 1.97266C7.33203 1.97266 5.16992 4.14062 5.16992 6.81641C5.16992 8.43164 5.95898 9.86328 7.17383 10.7441C7.16601 10.748 7.1582 10.75 7.15039 10.7539C6.27734 11.123 5.49414 11.6523 4.82031 12.3281C4.15037 12.9968 3.61702 13.7896 3.25 14.6621C2.88889 15.5165 2.69401 16.432 2.67578 17.3594C2.67526 17.3802 2.67892 17.401 2.68653 17.4204C2.69415 17.4398 2.70558 17.4575 2.72014 17.4724C2.7347 17.4873 2.7521 17.4992 2.77132 17.5073C2.79054 17.5154 2.81118 17.5195 2.83203 17.5195H4.00195C4.08594 17.5195 4.15625 17.4512 4.1582 17.3672C4.19726 15.8594 4.80078 14.4473 5.86914 13.377C6.97266 12.2695 8.44141 11.6602 10.0039 11.6602C11.1113 11.6602 12.1738 11.9668 13.0898 12.541C13.1134 12.5558 13.1404 12.5641 13.1682 12.5652C13.1959 12.5662 13.2235 12.5599 13.248 12.5469ZM10.0039 10.1758C9.10937 10.1758 8.26758 9.82617 7.63281 9.19141C7.3205 8.8799 7.0729 8.50968 6.9043 8.10207C6.73569 7.69446 6.64939 7.25751 6.65039 6.81641C6.65039 5.91992 7 5.07617 7.63281 4.44141C8.26562 3.80664 9.10742 3.45703 10.0039 3.45703C10.9004 3.45703 11.7402 3.80664 12.375 4.44141C12.6873 4.75291 12.9349 5.12313 13.1035 5.53074C13.2721 5.93836 13.3584 6.3753 13.3574 6.81641C13.3574 7.71289 13.0078 8.55664 12.375 9.19141C11.7402 9.82617 10.8984 10.1758 10.0039 10.1758ZM17.1875 14.8242H15.5469V13.1836C15.5469 13.0977 15.4766 13.0273 15.3906 13.0273H14.2969C14.2109 13.0273 14.1406 13.0977 14.1406 13.1836V14.8242H12.5C12.4141 14.8242 12.3437 14.8945 12.3437 14.9805V16.0742C12.3437 16.1602 12.4141 16.2305 12.5 16.2305H14.1406V17.8711C14.1406 17.957 14.2109 18.0273 14.2969 18.0273H15.3906C15.4766 18.0273 15.5469 17.957 15.5469 17.8711V16.2305H17.1875C17.2734 16.2305 17.3437 16.1602 17.3437 16.0742V14.9805C17.3437 14.8945 17.2734 14.8242 17.1875 14.8242Z" fill="black" fill-opacity="0.66"/>
</g>
</svg>
